<?xml version="1.0" encoding="iso-8859-1"?>
<!-- Generator: Adobe Illustrator 19.0.0, SVG Export Plug-In . SVG Version: 6.00 Build 0)  -->
<svg version="1.1" id="Capa_1" xmlns="http://www.w3.org/2000/svg" xmlns:xlink="http://www.w3.org/1999/xlink" x="0px" y="0px"
	 viewBox="0 0 512.026 512.026" style="enable-background:new 0 0 512.026 512.026;" xml:space="preserve">
<g>
	<g>
		<g>
			<path d="M408.014,416h-9.832l-38.4-146.032c0-0.144-0.144-0.248-0.184-0.384c14.292-20.529,22.601-44.625,24-69.6h13.096
				c10.657-0.009,19.298-8.639,19.32-19.296v-1.376c-0.013-10.66-8.652-19.299-19.312-19.312h-13.096
				c-3.921-65.673-54.271-119.132-119.592-126.976V8c0-4.418-3.582-8-8-8h-32c-4.418,0-8,3.582-8,8v25.024
				C150.693,40.868,100.343,94.327,96.422,160H83.326c-10.66,0.013-19.299,8.652-19.312,19.312v1.376
				c0.013,10.66,8.652,19.299,19.312,19.312h13.096c1.414,24.981,9.743,49.077,24.056,69.6c-0.056,0.184-0.192,0.328-0.24,0.52
				L97.766,363.2c-1.105,1.359-1.722,3.049-1.752,4.8c0.05,0.455,0.141,0.905,0.272,1.344l-32.048,132.8
				c-1.038,4.295,1.601,8.618,5.896,9.656c4.295,1.038,8.618-1.601,9.656-5.896L111.142,376h260l10.896,41.424
				c-17.625,4.521-29.968,20.381-30.024,38.576v16c0.026,22.08,17.92,39.974,40,40h16c22.08-0.026,39.974-17.92,40-40v-16
				C447.987,433.92,430.094,416.026,408.014,416z M232.014,16h16v16h-16V16z M232.014,48h16
				c63.137,0.081,115.445,49.009,119.736,112H112.278C116.569,97.009,168.877,48.081,232.014,48z M83.326,184
				c-1.827-0.004-3.308-1.485-3.312-3.312v-1.376c0.004-1.827,1.485-3.308,3.312-3.312h313.376c1.827,0.004,3.308,1.485,3.312,3.312
				v1.376c-0.004,1.827-1.485,3.308-3.312,3.312H83.326z M112.278,200H367.75c-4.292,62.991-56.599,111.919-119.736,112h-16
				C168.877,311.919,116.569,262.991,112.278,200z M115.006,360l18.088-74.952c25.612,27.385,61.425,42.936,98.92,42.952h16
				c37.597-0.029,73.493-15.676,99.104-43.2l19.784,75.2H115.006z M432.014,472c0,13.255-10.745,24-24,24h-16
				c-13.255,0-24-10.745-24-24v-16c0-13.255,10.745-24,24-24h16c13.255,0,24,10.745,24,24V472z"/>
			<path d="M401.614,448h-3.2c-1.056,0.008-2.107,0.132-3.136,0.368h-0.072c-6.546,1.496-11.189,7.317-11.192,14.032v3.2
				c0,7.953,6.447,14.4,14.4,14.4h3.2c7.953,0,14.4-6.447,14.4-14.4v-3.2C416.014,454.447,409.567,448,401.614,448z"/>
		</g>
	</g>
</g>
<g>
</g>
<g>
</g>
<g>
</g>
<g>
</g>
<g>
</g>
<g>
</g>
<g>
</g>
<g>
</g>
<g>
</g>
<g>
</g>
<g>
</g>
<g>
</g>
<g>
</g>
<g>
</g>
<g>
</g>
</svg>
