<?xml version="1.0" encoding="iso-8859-1"?>
<!-- Generator: Adobe Illustrator 19.0.0, SVG Export Plug-In . SVG Version: 6.00 Build 0)  -->
<svg version="1.1" id="Capa_1" xmlns="http://www.w3.org/2000/svg" xmlns:xlink="http://www.w3.org/1999/xlink" x="0px" y="0px"
	 viewBox="0 0 322.662 322.662" style="enable-background:new 0 0 322.662 322.662;" xml:space="preserve">
<g>
	<g>
		<g>
			<path d="M190.581,189.733h-7.5c-2.761,0-5,2.238-5,5c0,2.762,2.239,5,5,5h7.5c2.761,0,5-2.238,5-5
				C195.581,191.971,193.342,189.733,190.581,189.733z"/>
			<path d="M190.581,233.733h-7.5c-2.761,0-5,2.238-5,5c0,2.762,2.239,5,5,5h7.5c2.761,0,5-2.238,5-5
				C195.581,235.971,193.342,233.733,190.581,233.733z"/>
			<path d="M190.581,101.733h-7.5c-2.761,0-5,2.238-5,5c0,2.762,2.239,5,5,5h7.5c2.761,0,5-2.238,5-5
				C195.581,103.971,193.342,101.733,190.581,101.733z"/>
			<path d="M190.581,145.733h-7.5c-2.761,0-5,2.238-5,5c0,2.762,2.239,5,5,5h7.5c2.761,0,5-2.238,5-5
				C195.581,147.971,193.342,145.733,190.581,145.733z"/>
			<path d="M266.798,0H53.581c-0.033,0-0.065,0-0.097,0H18.832c-1.743,0-3.36,0.908-4.268,2.395
				c-0.909,1.489-0.976,3.341-0.18,4.891l33.269,64.732c0.248,0.483,0.563,0.908,0.928,1.269v197.178
				c0,5.027,2.071,9.578,5.404,12.847c-3.323,3.106-5.404,7.525-5.404,12.421v21.929c0,2.762,2.239,5,5,5h194.25
				c2.761,0,5-2.238,5-5v-21.929c0-4.897-2.08-9.316-5.404-12.421c3.333-3.269,5.404-7.821,5.404-12.847V34.733h12
				c5.514,0,10,4.486,10,10v168c0,9.374,7.626,17,17,17c9.374,0,17-7.626,17-17v-170.7C308.831,18.856,289.975,0,266.798,0z
				 M48.581,51.948L27.022,10.001h21.559V51.948z M242.831,312.662H58.581v-16.929c0-3.859,3.14-7,7-7h170.25c3.86,0,7,3.141,7,7
				V312.662z M298.831,212.733c0,3.859-3.14,7-7,7s-7-3.141-7-7v-168c0-11.028-8.972-20-20-20h-17c-2.761,0-5,2.238-5,5v240.733
				c0,4.411-3.589,8-8,8H66.581c-4.411,0-8-3.589-8-8V10.001h8.75c0.033,0,0.066,0,0.099-0.001h199.368
				c17.663,0,32.033,14.37,32.033,32.033V212.733z"/>
			<path d="M193.831,42.733h-14c-9.374,0-17,7.626-17,17v182c0,9.374,7.626,17,17,17h14c9.374,0,17-7.626,17-17v-182
				C210.831,50.359,203.205,42.733,193.831,42.733z M200.831,241.733c0,3.859-3.14,7-7,7h-14c-3.86,0-7-3.141-7-7v-182
				c0-3.859,3.14-7,7-7h14c3.86,0,7,3.141,7,7V241.733z"/>
			<path d="M190.581,57.733h-7.5c-2.761,0-5,2.238-5,5c0,2.762,2.239,5,5,5h7.5c2.761,0,5-2.238,5-5
				C195.581,59.971,193.342,57.733,190.581,57.733z"/>
		</g>
	</g>
</g>
<g>
</g>
<g>
</g>
<g>
</g>
<g>
</g>
<g>
</g>
<g>
</g>
<g>
</g>
<g>
</g>
<g>
</g>
<g>
</g>
<g>
</g>
<g>
</g>
<g>
</g>
<g>
</g>
<g>
</g>
</svg>
