<svg viewBox="0 0 182.08 63.98"><path d="M59.46 8.984q-1.248 4.92-4.139 9.118-2.825 4.199-6.7 7.282-3.811 3.084-8.344 4.79-4.467 1.705-9 1.64-3.482-.066-6.044-1.116-2.497-1.05-4.139-2.82-1.577-1.772-2.3-4.003-.656-2.296-.393-4.723.657-4.395 3.678-7.938 3.022-3.608 7.555-6.035 4.533-2.493 10.117-3.805 5.65-1.378 11.563-1.378 3.941 0 7.817.59 4.008.59 7.752 1.903 3.81 1.312 6.964 3.28Q77 4.26 80.417 3.342q3.481-.919 7.489-1.116 2.299-.065 4.27.394 2.036.394 3.547 1.246 1.511.788 2.365 1.969.92 1.115.92 2.427 0 1.115-.526 2.034-.46.918-1.314 1.574-.854.59-1.905.919-.985.328-1.97.328-1.117 0-2.037-.59t-1.642-1.903q.985 0 1.642-.197.723-.263 1.117-.59t.525-.722q.197-.394.197-.656 0-1.116-1.313-2.034-1.249-.918-4.205-.984-3.022-.066-5.847.59t-5.19 1.772q2.497 2.099 3.876 4.789 1.446 2.69 1.38 5.904 0 2.362-.92 4.461t-2.496 3.87q-1.511 1.772-3.613 3.15-2.037 1.377-4.336 2.296 1.38 1.705 2.036 3.936.657 2.165.657 4.658 0 1.18-.197 2.361-.131 1.181-.46 2.297-.854 2.952-2.693 6.166-1.774 3.15-4.336 5.773-2.562 2.69-5.781 4.461-3.154 1.772-6.701 1.837-3.876.066-5.715-1.902t-1.84-5.052q0-2.558 1.314-5.51 1.38-2.953 3.942-5.445 2.562-2.559 6.175-4.265 3.679-1.705 8.277-1.837-1.248.394-2.89 1.575-1.577 1.115-3.022 2.558t-2.43 2.953-.986 2.558q0 1.181 2.168 1.181.657 0 2.036-.656 1.446-.722 3.022-1.903t3.088-2.755q1.51-1.64 2.365-3.542 1.182-2.625 1.182-4.724 0-.853-.46-2.034-.394-1.18-.722-1.902-1.708.525-3.416.853-1.708.262-3.35.262-2.694 0-3.877-.984t-1.182-2.165q0-1.377 1.51-2.493 1.578-1.18 4.337-.787 2.956.525 5.387 2.1 1.708-.985 3.153-2.362 1.511-1.444 2.628-2.953 1.182-1.574 1.905-3.083.723-1.574.854-2.82.197-2.756-.723-5.052-.854-2.296-2.365-3.936-3.022 1.968-5.715 4.592-2.628 2.558-5.059 5.642t-4.73 6.494q-2.299 3.346-4.598 6.889-3.745 5.773-7.752 11.35-3.942 5.575-8.606 9.905-4.665 4.396-10.314 6.954-5.65 2.624-12.81 2.427-2.563-.065-5.125-.852-2.496-.788-4.467-2.297-1.905-1.443-3.088-3.608t-1.05-5.051q.065-1.771.722-3.674.657-1.968 1.97-3.28.986-.984 2.366-1.575 1.38-.656 2.956-.656.985 0 2.233.394 1.314.394 2.431 1.115.526-1.18 1.971-2.165 1.445-1.05 3.416-1.05 1.511 0 3.81 1.247-1.445 1.312-2.102 2.427-.591 1.05-.591 1.837 0 1.312 1.182 2.23 1.249.92 3.285.92 1.117 0 2.365-.329 1.314-.393 2.628-1.115 3.088-1.771 5.912-4.067 2.825-2.362 5.453-5.052 2.694-2.69 5.124-5.576t4.73-5.708 4.73-5.707 5.059-5.576 5.387-5.052q2.759-2.427 5.715-4.198-3.087-1.903-7.16-2.756-4.074-.918-8.08-.918h-1.315q-.591 0-1.182.065-3.81.132-7.227 1.575-3.416 1.378-6.044 3.477-2.562 2.034-4.138 4.46-1.511 2.363-1.511 4.396 0 1.837 1.576 3.084 1.643 1.18 5.322 1.312 2.693.065 5.124-.919 2.496-1.05 4.795-2.82t4.402-4.2 4.139-5.247zm2.693 22.764q1.971-.131 3.613-.787-1.445-.656-3.481-.788-1.314-.13-2.103.263-.788.328-.788.656 0 .262.591.459.657.197 2.168.197z"/><path d="M96.215 37.323q.328-.263.656-.131.395.065.657.393t.329.722-.197.656l-7.358 7.347q-1.182 1.181-2.562 2.362-1.314 1.181-2.76 2.1t-3.087 1.443q-1.577.525-3.219.459-2.102-.131-2.956-1.181-.92-1.05-.92-2.69 0-1.574.723-3.345t2.036-3.477v.065L94.704 15.74h6.897L84.127 42.177q-.723 1.181-1.183 2.297-.46 1.05-.46 1.77 0 1.116 1.446 1.116.788 0 1.84-.656 1.116-.722 2.364-1.706t2.43-2.099l2.169-2.165z"/><path d="M129.678 37.323q.328-.263.657-.131.394.065.657.393t.328.722-.197.656l-7.358 7.347q-1.182 1.181-2.562 2.362-1.314 1.181-2.759 2.1t-3.088 1.443q-1.576.525-3.219.459-2.102-.066-3.087-1.181-.92-1.115-.92-2.755v-.525q0-.263.066-.59-2.76 2.427-5.782 3.804-2.956 1.378-5.912 1.378-2.89 0-4.402-1.312-1.576-1.312-1.84-3.411-.13-1.772.855-3.87.92-2.1 2.562-4.134 1.708-2.1 3.876-4.002 2.234-1.902 4.664-3.345 2.431-1.51 4.927-2.297 2.497-.852 4.665-.787 2.3.131 3.285 1.443 1.05 1.247 1.248 2.887l2.299-3.543h7.095q-.591.788-1.51 2.1t-1.972 2.886-2.233 3.346l-2.234 3.411q-.788 1.312-1.248 2.362t-.46 1.837q0 .984 1.314.984 1.51 0 4.598-2.755 3.154-2.756 7.687-7.282zm-27.526 9.84q1.182 0 2.365-.393 1.182-.46 2.233-1.116 1.117-.721 2.103-1.574t1.773-1.64l3.022-4.527q.657-1.115.657-2.362 0-1.115-.657-2.033-.657-.984-1.97-1.115-2.169-.132-4.402 1.18-2.234 1.247-4.139 3.215-1.84 1.902-3.022 4.133-1.182 2.165-1.182 3.805 0 1.115.722 1.771.789.656 2.497.656z"/><path d="M141.428 38.443q-.723-.524-.92-1.574-.132-1.115.328-2.1.526-1.049 1.708-1.77t3.285-.525q.263 0 0-.328-.197-.394-1.642-.328-1.774.065-3.745 1.18-1.97 1.05-3.679 2.69-1.708 1.575-3.087 3.543-1.314 1.902-1.774 3.673-.197.919-.132 1.706t.46 1.443q.46.59 1.248.984.854.329 2.168.329 2.037 0 4.073-.788 2.103-.787 4.205-2.099 2.168-1.378 4.27-3.215 2.168-1.836 4.336-3.936v.066q.263-.263.591-.197.394.066.657.394.263.262.329.721.065.394-.263.722-2.234 2.23-5.059 4.658-2.759 2.427-5.847 4.46-3.021 1.969-6.175 3.28t-6.175 1.313q-2.168 0-3.482-.656-1.248-.59-1.905-1.509-.657-.984-.854-2.034t-.197-1.902q.197-2.755 2.102-5.773 1.84-3.018 4.73-5.445 2.89-2.493 6.372-4.068 3.548-1.64 7.03-1.64 1.905 0 3.087.787 1.183.722 1.314 2.297t-.657 3.149-2.693 2.624q-.197.13-.657.328-.46.13-1.051.197-.591 0-1.183-.132t-1.116-.525z"/><path d="M142.384 52.612l24.964-36.804h6.898L158.94 38.507q.657 0 1.248-.328.592-.394 1.117-.918.591-.525 1.051-1.116.526-.59.92-1.05.854-.983 1.84-2.033 1.05-1.115 2.167-1.968 1.183-.853 2.497-1.378 1.38-.59 2.956-.525.657 0 1.445.263.789.197 1.38.721.657.46 1.051 1.181t.394 1.772q-.065 1.508-.854 2.492t-1.905 1.64q-1.051.591-2.168.919-1.117.262-1.774.328-.657.131-1.05-.131-.33-.328-.395-.722-.066-.459.132-.918.262-.46.854-.656.525-.131.854-.46.394-.393.394-.852 0-.656-1.117-.656-.723 0-1.577.656t-1.84 1.574q-.722.656-1.51 1.312-.723.656-1.511 1.247 1.708.787 2.693 2.427.986 1.64.592 4.002-.132.525.197.787.394.197.985.197 2.234 0 5.584-2.559h-.066v-.065q.723-.59 1.38-1.116t1.314-1.115l4.204-4.133q.329-.262.657-.131.394.066.657.394t.329.721-.197.656l-7.62 7.282q-.92.787-1.709 1.378t-1.708 1.18v-.065q-.591.46-1.642 1.115-.986.656-2.168 1.312-1.117.59-2.234 1.05t-1.84.525q-2.102.131-3.416-1.18-1.248-1.313-.525-4.068.197-.722.525-1.51l.789-1.574q.46-.918.788-1.705t.394-1.116q0-.656-.46-.852-.46-.197-1.116-.197-.592 0-1.314.065-.657.066-1.051-.13l-8.212 12.136z"/><g fill="#06f"><path d="M87.258 61.254q0 .52-.245 1.027-.239.508-.675.86-.479.382-1.119.597-.634.215-1.53.215-.964 0-1.735-.179-.765-.18-1.56-.531v-1.481h.083q.676.56 1.56.865.886.305 1.663.305 1.1 0 1.71-.412.617-.412.617-1.099 0-.591-.293-.872-.288-.28-.88-.436-.448-.12-.974-.197-.52-.077-1.107-.197-1.184-.25-1.758-.854-.568-.609-.568-1.582 0-1.117.945-1.828.945-.716 2.398-.716.939 0 1.722.179.784.179 1.388.442v1.397h-.084q-.508-.43-1.34-.71-.825-.287-1.692-.287-.95 0-1.53.394-.575.394-.575 1.015 0 .556.287.872.287.317 1.01.484.383.083 1.09.203.705.12 1.195.245.993.262 1.495.794t.503 1.487zM98.555 63.792h-1.262l-.873-2.478H92.57l-.873 2.478h-1.202l3.241-8.892h1.579zm-2.5-3.493l-1.56-4.365-1.567 4.365zM109.768 63.792h-1.536l-2.979-3.535h-1.668v3.535H102.4V54.9h2.493q.808 0 1.346.108.538.101.969.37.484.305.753.77.275.46.275 1.171 0 .961-.484 1.612-.484.645-1.334.974zM107 57.402q0-.382-.138-.674-.131-.299-.442-.502-.258-.173-.61-.239-.353-.072-.832-.072h-1.393v3.357h1.196q.562 0 .98-.096.42-.101.712-.37.27-.251.395-.574.132-.328.132-.83zM120.125 61.057q0 .663-.25 1.17-.252.508-.677.836-.502.394-1.106.562-.598.167-1.525.167h-3.158V54.9h2.638q.974 0 1.459.071.484.072.927.299.49.257.711.663.222.4.222.961 0 .633-.323 1.081-.323.442-.861.71v.049q.903.185 1.423.794.52.603.52 1.529zm-1.991-4.007q0-.323-.108-.544-.107-.22-.347-.358-.28-.161-.681-.197-.401-.042-.993-.042h-1.411v2.568h1.53q.557 0 .886-.054.328-.06.61-.239t.394-.46q.12-.286.12-.674zm.76 4.054q0-.537-.162-.854-.162-.316-.586-.537-.287-.15-.7-.191-.407-.048-.993-.048h-1.86v3.308h1.567q.778 0 1.274-.077.496-.084.813-.299.335-.233.49-.531.156-.299.156-.77zM127.44 63.792h-3.517v-.907h1.166v-7.077h-1.166V54.9h3.516v.908h-1.166v7.077h1.166zM138.754 63.792h-1.466l-4.221-7.954v7.954h-1.107V54.9h1.836l3.851 7.262V54.9h1.107zM150.254 55.922q.544.597.831 1.463.293.866.293 1.965t-.299 1.97q-.293.867-.825 1.446-.55.603-1.304.908-.747.304-1.71.304-.939 0-1.71-.31-.766-.31-1.304-.902-.538-.591-.831-1.451-.287-.86-.287-1.965 0-1.087.287-1.947.287-.866.837-1.48.526-.586 1.304-.897.783-.31 1.704-.31.957 0 1.716.316.766.311 1.298.89zm-.108 3.428q0-1.732-.777-2.67-.777-.943-2.123-.943-1.358 0-2.135.944-.771.937-.771 2.67 0 1.749.789 2.68.79.926 2.117.926t2.111-.925q.79-.932.79-2.682zM166.115 54.9l-2.314 8.892h-1.334l-1.871-7.382-1.83 7.382h-1.304l-2.356-8.893h1.214l1.872 7.394 1.841-7.394h1.203l1.86 7.465 1.86-7.465zM176.986 55.922q.545.597.832 1.463.293.866.293 1.965t-.3 1.97q-.292.867-.825 1.446-.55.603-1.303.908-.748.304-1.71.304-.94 0-1.711-.31-.765-.31-1.304-.902-.538-.591-.83-1.451-.288-.86-.288-1.965 0-1.087.287-1.947.287-.866.837-1.48.527-.586 1.304-.897.783-.31 1.704-.31.957 0 1.717.316.765.311 1.297.89zm-.107 3.428q0-1.732-.778-2.67-.777-.943-2.123-.943-1.357 0-2.135.944-.771.937-.771 2.67 0 1.749.79 2.68.789.926 2.116.926t2.111-.925q.79-.932.79-2.682z"/></g></svg>