<?xml version="1.0" encoding="UTF-8" standalone="no"?>
<!-- Created with Inkscape (http://www.inkscape.org/) -->

<svg
   xmlns:dc="http://purl.org/dc/elements/1.1/"
   xmlns:cc="http://creativecommons.org/ns#"
   xmlns:rdf="http://www.w3.org/1999/02/22-rdf-syntax-ns#"
   xmlns:svg="http://www.w3.org/2000/svg"
   xmlns="http://www.w3.org/2000/svg"
   xmlns:sodipodi="http://sodipodi.sourceforge.net/DTD/sodipodi-0.dtd"
   xmlns:inkscape="http://www.inkscape.org/namespaces/inkscape"
   width="182.0836mm"
   height="63.91177mm"
   viewBox="0 0 182.0836 63.91177"
   version="1.1"
   id="svg905"
   inkscape:version="0.92.4 (5da689c313, 2019-01-14)"
   sodipodi:docname="LogoBlack.svg">
  <defs
     id="defs899" />
  <sodipodi:namedview
     id="base"
     pagecolor="#ffffff"
     bordercolor="#666666"
     borderopacity="1.0"
     inkscape:pageopacity="0.0"
     inkscape:pageshadow="2"
     inkscape:zoom="0.49497475"
     inkscape:cx="112.87167"
     inkscape:cy="-22.775667"
     inkscape:document-units="mm"
     inkscape:current-layer="layer1"
     showgrid="false"
     inkscape:window-width="1842"
     inkscape:window-height="1057"
     inkscape:window-x="70"
     inkscape:window-y="-8"
     inkscape:window-maximized="1"
     fit-margin-top="0"
     fit-margin-left="0"
     fit-margin-right="0"
     fit-margin-bottom="0" />
  <metadata
     id="metadata902">
    <rdf:RDF>
      <cc:Work
         rdf:about="">
        <dc:format>image/svg+xml</dc:format>
        <dc:type
           rdf:resource="http://purl.org/dc/dcmitype/StillImage" />
        <dc:title></dc:title>
      </cc:Work>
    </rdf:RDF>
  </metadata>
  <g
     inkscape:label="Layer 1"
     inkscape:groupmode="layer"
     id="layer1"
     transform="translate(-17.655386,-98.297691)">
    <g
       style="fill:#000000"
       inkscape:export-ydpi="600"
       inkscape:export-xdpi="600"
       transform="matrix(2.5863743,0,0,2.5828241,-160.99811,-338.15336)"
       id="g969">
      <g
         id="g963"
         style="font-style:normal;font-variant:normal;font-weight:normal;font-stretch:normal;font-size:10.66666698px;line-height:1.25;font-family:Channel;-inkscape-font-specification:Channel;letter-spacing:0px;word-spacing:0px;fill:#000000;fill-opacity:1;stroke:none"
         transform="matrix(0.09706976,0,0,0.09706976,149.13292,218.53046)"
         aria-label="Black">
        <g
           id="g949"
           style="font-style:normal;font-variant:normal;font-weight:normal;font-stretch:normal;font-size:10.66666698px;line-height:1.25;font-family:Ubuntu;-inkscape-font-specification:Ubuntu;letter-spacing:0px;word-spacing:0px;fill:#000000;fill-opacity:1;stroke:none"
           transform="matrix(2.725703,0,0,2.725703,-823.64703,-512.907)" />
        <g
           id="g961"
           style="font-style:normal;font-variant:normal;font-weight:normal;font-stretch:normal;font-size:10.66666698px;line-height:1.25;font-family:Ubuntu;-inkscape-font-specification:Ubuntu;letter-spacing:0px;word-spacing:0px;fill:#000000;fill-opacity:1;stroke:none"
           transform="matrix(2.725703,0,0,2.725703,-146.31659,-75.120252)"
           aria-label="Black">
          <path
             id="path951"
             style="font-style:normal;font-variant:normal;font-weight:normal;font-stretch:normal;font-size:96px;font-family:'Enthrall Bold Personal Use';-inkscape-font-specification:'Enthrall Bold Personal Use';fill:#000000"
             d="m -162.00205,-146.55742 q -1.824,7.2 -6.048,13.344 -4.128,6.144 -9.792,10.656 -5.568,4.512 -12.192,7.008 -6.528,2.496 -13.152,2.4 -5.088,-0.096 -8.832,-1.632 -3.648,-1.536 -6.048,-4.128 -2.304,-2.592 -3.36,-5.856 -0.96,-3.36 -0.576,-6.912 0.96,-6.432 5.376,-11.616 4.416,-5.28 11.04,-8.832 6.624,-3.648 14.784,-5.568 8.256,-2.016 16.896,-2.016 5.76,0 11.424,0.864 5.856,0.864 11.328,2.784 5.568,1.92 10.176,4.8 4.608,-2.208 9.6,-3.552 5.088,-1.344 10.944,-1.632 3.36,-0.096 6.24,0.576 2.976,0.576 5.184,1.824 2.208,1.152 3.456,2.88 1.344,1.632 1.344,3.552 0,1.632 -0.768,2.976 -0.672,1.344 -1.92,2.304 -1.248,0.864 -2.784,1.344 -1.44,0.48 -2.88,0.48 -1.632,0 -2.976,-0.864 -1.344,-0.864 -2.4,-2.784 1.44,0 2.4,-0.288 1.056,-0.384 1.632,-0.864 0.576,-0.48 0.768,-1.056 0.288,-0.576 0.288,-0.96 0,-1.632 -1.92,-2.976 -1.824,-1.344 -6.144,-1.44 -4.416,-0.096 -8.544,0.864 -4.128,0.96 -7.584,2.592 3.648,3.072 5.664,7.008 2.112,3.936 2.016,8.64 0,3.456 -1.344,6.528 -1.344,3.072 -3.648,5.664 -2.208,2.592 -5.28,4.608 -2.976,2.016 -6.336,3.36 2.016,2.496 2.976,5.76 0.96,3.168 0.96,6.816002 0,1.728 -0.288,3.456 -0.192,1.728 -0.672,3.36 -1.248,4.32 -3.936,9.024 -2.592,4.608 -6.336,8.448 -3.744,3.936 -8.448,6.528 -4.608,2.592 -9.792,2.688 -5.664,0.096 -8.352,-2.784 -2.688,-2.88 -2.688,-7.392 0,-3.744 1.92,-8.064 2.016,-4.32 5.76,-7.968 3.744,-3.744 9.024,-6.24 5.376,-2.496002 12.096,-2.688002 -1.824,0.576 -4.224,2.304002 -2.304,1.632 -4.416,3.744 -2.112,2.112 -3.552,4.32 -1.44,2.208 -1.44,3.744 0,1.728 3.168,1.728 0.96,0 2.976,-0.96 2.112,-1.056 4.416,-2.784 2.304,-1.728 4.512,-4.032 2.208,-2.4 3.456,-5.184 1.728,-3.840002 1.728,-6.912002 0,-1.248 -0.672,-2.976 -0.576,-1.728 -1.056,-2.784 -2.496,0.768 -4.992,1.248 -2.496,0.384 -4.896,0.384 -3.936,0 -5.664,-1.44 -1.728,-1.44 -1.728,-3.168 0,-2.016 2.208,-3.648 2.304,-1.728 6.336,-1.152 4.32,0.768 7.872,3.072 2.496,-1.44 4.608,-3.456 2.208,-2.112 3.84,-4.32 1.728,-2.304 2.784,-4.512 1.056,-2.304 1.248,-4.128 0.288,-4.032 -1.056,-7.392 -1.248,-3.36 -3.456,-5.76 -4.416,2.88 -8.352,6.72 -3.84,3.744 -7.392,8.256 -3.552,4.512 -6.912,9.504 -3.36,4.896 -6.72,10.08 -5.472,8.448 -11.328,16.608002 -5.76,8.16 -12.576,14.496 -6.816,6.432 -15.072,10.176 -8.256,3.84 -18.72,3.552 -3.744,-0.096 -7.488,-1.248 -3.648,-1.152 -6.528,-3.36 -2.784,-2.112 -4.512,-5.28 -1.728,-3.168 -1.536,-7.392 0.096,-2.592 1.056,-5.376 0.96,-2.88 2.88,-4.8 1.44,-1.44 3.456,-2.304 2.016,-0.96 4.32,-0.96 1.44,0 3.264,0.576 1.92,0.576 3.552,1.632 0.768,-1.728 2.88,-3.168 2.112,-1.536 4.992,-1.536 2.208,0 5.568,1.824 -2.112,1.92 -3.072,3.552 -0.864,1.536 -0.864,2.688 0,1.92 1.728,3.264 1.824,1.344 4.8,1.344 1.632,0 3.456,-0.48 1.92,-0.576 3.84,-1.632 4.512,-2.592 8.64,-5.952 4.128,-3.456 7.968,-7.392002 3.936,-3.936 7.488,-8.16 3.552,-4.224 6.912,-8.352 3.36,-4.128 6.912,-8.352 3.552,-4.224 7.392,-8.16 3.84,-3.936 7.872,-7.392 4.032,-3.552 8.352,-6.144 -4.512,-2.784 -10.464,-4.032 -5.952,-1.344 -11.808,-1.344 -0.96,0 -1.92,0 -0.864,0 -1.728,0.096 -5.568,0.192 -10.56,2.304 -4.992,2.016 -8.832,5.088 -3.744,2.976 -6.048,6.528 -2.208,3.456 -2.208,6.432 0,2.688 2.304,4.512 2.4,1.728 7.776,1.92 3.936,0.096 7.488,-1.344 3.648,-1.536 7.008,-4.128 3.36,-2.592 6.432,-6.144 3.072,-3.552 6.048,-7.68 z m 3.936,33.312 q 2.88,-0.192 5.28,-1.152 -2.112,-0.96 -5.088,-1.152 -1.92,-0.192 -3.072,0.384 -1.152,0.48 -1.152,0.96 0,0.384 0.864,0.672 0.96,0.288 3.168,0.288 z"
             inkscape:connector-curvature="0" />
          <path
             id="path953"
             style="font-style:normal;font-variant:normal;font-weight:normal;font-stretch:normal;font-size:96px;font-family:'Enthrall Bold Personal Use';-inkscape-font-specification:'Enthrall Bold Personal Use';fill:#000000"
             d="m -108.29005,-105.08542 q 0.48,-0.384 0.96,-0.192 0.576,0.096 0.96,0.576 0.384,0.48 0.48,1.056 0.096,0.576 -0.288,0.96 l -10.752,10.752002 q -1.728,1.728 -3.744,3.456 -1.92,1.728 -4.032,3.072 -2.112,1.344 -4.512,2.112 -2.304,0.768 -4.704,0.672 -3.072,-0.192 -4.32,-1.728 -1.344,-1.536 -1.344,-3.936 0,-2.304 1.056,-4.896 1.056,-2.592 2.976,-5.088 v 0.096 l 25.056,-38.496002 h 10.08 l -25.536,38.688002 q -1.056,1.728 -1.728,3.36 -0.672,1.536 -0.672,2.592 0,1.632 2.112,1.632 1.152,0 2.688,-0.96 1.632,-1.056 3.456,-2.496 1.824,-1.44 3.552,-3.072 1.728,-1.728 3.168,-3.168002 z"
             inkscape:connector-curvature="0" />
          <path
             id="path955"
             style="font-style:normal;font-variant:normal;font-weight:normal;font-stretch:normal;font-size:96px;font-family:'Enthrall Bold Personal Use';-inkscape-font-specification:'Enthrall Bold Personal Use';fill:#000000"
             d="m -59.390047,-105.08542 q 0.48,-0.384 0.96,-0.192 0.576,0.096 0.96,0.576 0.384,0.48 0.48,1.056 0.096,0.576 -0.288,0.96 l -10.752,10.752002 q -1.728,1.728 -3.744,3.456 -1.92,1.728 -4.032,3.072 -2.112,1.344 -4.512,2.112 -2.304,0.768 -4.704,0.672 -3.072,-0.096 -4.512,-1.728 -1.344,-1.632 -1.344,-4.032 0,-0.48 0,-0.768 0,-0.384 0.096,-0.864 -4.032,3.552 -8.448,5.568 -4.320003,2.016 -8.640003,2.016 -4.224,0 -6.432,-1.92 -2.304,-1.92 -2.688,-4.992 -0.192,-2.592 1.248,-5.664 1.344,-3.072 3.744,-6.048002 2.496,-3.072 5.664,-5.856 3.264,-2.784 6.816003,-4.896 3.552,-2.208 7.2,-3.36 3.648,-1.248 6.816,-1.152 3.36,0.192 4.8,2.112 1.536,1.824 1.824,4.224 l 3.36,-5.184 h 10.368 q -0.864,1.152 -2.208,3.072 -1.344,1.92 -2.88,4.224 -1.536,2.304 -3.264,4.896 -1.632,2.496 -3.264,4.992002 -1.152,1.92 -1.824,3.456 -0.672,1.536 -0.672,2.688 0,1.44 1.92,1.44 2.208,0 6.72,-4.032 4.608,-4.032 11.232,-10.656002 z m -40.224,14.400002 q 1.728,0 3.456,-0.576 1.728,-0.672 3.264,-1.632 1.632,-1.056 3.072,-2.304 1.44,-1.248 2.592,-2.4 l 4.416,-6.624002 q 0.96,-1.632 0.96,-3.456 0,-1.632 -0.96,-2.976 -0.96,-1.44 -2.88,-1.632 -3.168,-0.192 -6.432,1.728 -3.264,1.824 -6.048,4.704 -2.688003,2.784 -4.416003,6.048002 -1.728,3.168 -1.728,5.568 0,1.632 1.056,2.592 1.152,0.96 3.648003,0.96 z"
             inkscape:connector-curvature="0" />
          <path
             id="path957"
             style="font-style:normal;font-variant:normal;font-weight:normal;font-stretch:normal;font-size:96px;font-family:'Enthrall Bold Personal Use';-inkscape-font-specification:'Enthrall Bold Personal Use';fill:#000000"
             d="m -42.219547,-103.45342 q -1.056,-0.768 -1.344,-2.304 -0.192,-1.632 0.48,-3.072 0.768,-1.536 2.496,-2.592 1.728,-1.056 4.8,-0.768 0.384,0 0,-0.48 -0.288,-0.576 -2.4,-0.48 -2.592,0.096 -5.472,1.728 -2.88,1.536 -5.376,3.936 -2.496,2.304 -4.512,5.184 -1.92,2.784002 -2.592,5.376002 -0.288,1.344 -0.192,2.496 0.096,1.152 0.672,2.112 0.672,0.864 1.824,1.44 1.248,0.48 3.168,0.48 2.976,0 5.952,-1.152 3.072,-1.152 6.144,-3.072 3.168,-2.016 6.24,-4.704 3.168,-2.688002 6.336,-5.760002 v 0.096 q 0.384,-0.384 0.864,-0.288 0.576,0.096 0.96,0.576 0.384,0.384 0.48,1.056 0.096,0.576 -0.384,1.056 -3.264,3.264002 -7.392,6.816002 -4.032,3.552 -8.544,6.528 -4.416,2.88 -9.024,4.8 -4.608,1.92 -9.024,1.92 -3.168,0 -5.088,-0.96 -1.824,-0.864 -2.784,-2.208 -0.96,-1.44 -1.248,-2.976 -0.288,-1.536 -0.288,-2.784 0.288,-4.032 3.072,-8.448 2.688,-4.416002 6.912,-7.968002 4.224,-3.648 9.312,-5.952 5.184,-2.4 10.272,-2.4 2.784,0 4.512,1.152 1.728,1.056 1.92,3.36 0.192,2.304 -0.96,4.608 -1.152,2.304 -3.936,3.84 -0.288,0.192 -0.96,0.48 -0.672,0.192 -1.536,0.288 -0.864,0 -1.728,-0.192 -0.864,-0.192 -1.632,-0.768 z"
             inkscape:connector-curvature="0" />
          <path
             id="path959"
             style="font-style:normal;font-variant:normal;font-weight:normal;font-stretch:normal;font-size:96px;font-family:'Enthrall Bold Personal Use';-inkscape-font-specification:'Enthrall Bold Personal Use';fill:#000000"
             d="m -40.821547,-82.717418 36.4800001,-53.856002 h 10.08 l -22.3680001,33.216 q 0.96,0 1.824,-0.48 0.864,-0.576 1.632,-1.344 0.864,-0.768 1.536,-1.632 0.768,-0.864 1.344,-1.536 1.2480001,-1.44 2.6880001,-2.976 1.536,-1.632 3.168,-2.88 1.728,-1.248 3.64800003,-2.016 2.01599997,-0.864 4.31999997,-0.768 0.96,0 2.112,0.384 1.152,0.288 2.016,1.056 0.96,0.672 1.536,1.728 0.576,1.056 0.576,2.592 -0.096,2.208 -1.248,3.648 -1.152,1.44 -2.784,2.4 -1.536,0.864 -3.168,1.344 -1.63199997,0.384 -2.59199997,0.48 -0.96,0.192 -1.53600003,-0.192 -0.48,-0.48 -0.576,-1.056 -0.096,-0.672 0.192,-1.344 0.384,-0.672 1.24800002,-0.96 0.768,-0.192 1.24800001,-0.672 0.57599997,-0.576 0.57599997,-1.248 0,-0.96 -1.63199998,-0.96 -1.05600002,0 -2.30400002,0.96 -1.248,0.96 -2.688,2.304 -1.056,0.96 -2.208,1.92 -1.056,0.96 -2.208,1.824 2.496,1.152 3.936,3.552002 1.44,2.4 0.864,5.856 -0.192,0.768 0.288,1.152 0.576,0.288 1.44,0.288 3.26400002,0 8.16,-3.744 h -0.096 q 0,0 0,-0.096 1.056,-0.864 2.016,-1.632 0.96,-0.768 1.92,-1.632 l 6.1439999,-6.048002 q 0.48,-0.384 0.96,-0.192 0.576,0.096 0.96,0.576 0.384,0.48 0.48,1.056 0.096,0.576 -0.288,0.96 L 5.7384531,-92.029418 q -1.344,1.152 -2.496,2.016 -1.152,0.864 -2.49599997,1.728 v -0.096 q -0.86400001,0.672 -2.40000003,1.632 -1.44,0.96 -3.168,1.92 -1.632,0.864 -3.264,1.536 -1.632,0.672 -2.6880001,0.768 -3.072,0.192 -4.992,-1.728 -1.824,-1.92 -0.768,-5.952 0.288,-1.056 0.768,-2.208 0.576,-1.152 1.152,-2.304 0.672,-1.344 1.152,-2.496 0.48,-1.152 0.576,-1.632 0,-0.96 -0.672,-1.248002 -0.672,-0.288 -1.632,-0.288 -0.864,0 -1.92,0.096 -0.96,0.096 -1.536,-0.192 l -12,17.760002 z"
             inkscape:connector-curvature="0" />
        </g>
      </g>
      <g
         id="g965"
         style="font-style:normal;font-variant:normal;font-weight:normal;font-stretch:normal;font-size:14.11111069px;line-height:1.25;font-family:Channel;-inkscape-font-specification:Channel;letter-spacing:0px;word-spacing:0px;fill:#000000;fill-opacity:1;stroke:none;stroke-width:0.15976892" />
      <g
         id="g967"
         style="font-style:normal;font-variant:normal;font-weight:normal;font-stretch:normal;font-size:10.66666698px;line-height:1.25;font-family:Ubuntu;-inkscape-font-specification:Ubuntu;letter-spacing:0px;word-spacing:0px;fill:#000000;fill-opacity:1;stroke:none"
         transform="matrix(0.26458333,0,0,0.26458333,69.199146,168.32501)" />
    </g>
    <flowRoot
       xml:space="preserve"
       id="flowRoot873"
       style="font-style:normal;font-variant:normal;font-weight:normal;font-stretch:normal;font-size:10.66666698px;line-height:1.25;font-family:Ubuntu;-inkscape-font-specification:Ubuntu;letter-spacing:0px;word-spacing:0px;fill:#0066ff;fill-opacity:1;stroke:none"
       transform="matrix(0.22964,0,0,0.22932479,99.784459,59.839092)"><flowRegion
         id="flowRegion875"
         style="fill:#0066ff;fill-opacity:1"><rect
           id="rect877"
           width="1104.8544"
           height="506.02328"
           x="-11.048544"
           y="397.23212"
           style="fill:#0066ff;fill-opacity:1" /></flowRegion><flowPara
         id="flowPara879"
         style="font-style:normal;font-variant:normal;font-weight:normal;font-stretch:normal;font-size:53.33333588px;font-family:'Montserrat SemiBold';-inkscape-font-specification:'Montserrat SemiBold, ';letter-spacing:10.86000252px;word-spacing:0.75px;fill:#0066ff;fill-opacity:1">SARBINOWO</flowPara></flowRoot>  </g>
</svg>
