<?xml version="1.0" encoding="iso-8859-1"?>
<!-- Generator: Adobe Illustrator 19.0.0, SVG Export Plug-In . SVG Version: 6.00 Build 0)  -->
<svg version="1.1" id="Capa_1" xmlns="http://www.w3.org/2000/svg" xmlns:xlink="http://www.w3.org/1999/xlink" x="0px" y="0px"
	 viewBox="0 0 409.6 409.6" style="enable-background:new 0 0 409.6 409.6;" xml:space="preserve">
<g>
	<g>
		<path d="M389.837,37.547H19.763C8.866,37.547,0,46.413,0,57.31v247.194c0,10.897,8.866,19.763,19.763,19.763h370.074
			c10.897,0,19.763-8.866,19.763-19.763V57.31C409.6,46.413,400.734,37.547,389.837,37.547z M395.947,304.503
			c0,3.371-2.739,6.11-6.11,6.11H19.763c-3.371,0-6.11-2.739-6.11-6.11V57.31c0-3.371,2.739-6.11,6.11-6.11h370.074
			c3.371,0,6.11,2.739,6.11,6.11V304.503z"/>
	</g>
</g>
<g>
	<g>
		<path d="M382.293,58.027H27.307c-3.77,0-6.827,3.057-6.827,6.827V296.96c0,3.77,3.057,6.827,6.827,6.827h354.987
			c3.77,0,6.827-3.057,6.827-6.827V64.853C389.12,61.083,386.063,58.027,382.293,58.027z M375.467,290.133H34.133V71.68h341.333
			V290.133z"/>
	</g>
</g>
<g>
	<g>
		<path d="M225.28,310.613h-40.96c-3.77,0-6.827,3.057-6.827,6.827v47.787c0,3.77,3.057,6.827,6.827,6.827h40.96
			c3.77,0,6.827-3.057,6.827-6.827V317.44C232.107,313.67,229.05,310.613,225.28,310.613z M218.453,358.4h-27.307v-34.133h27.307
			V358.4z"/>
	</g>
</g>
<g>
	<g>
		<path d="M273.067,358.4H136.533c-3.77,0-6.827,3.057-6.827,6.827s3.057,6.827,6.827,6.827h136.533c3.77,0,6.827-3.057,6.827-6.827
			S276.837,358.4,273.067,358.4z"/>
	</g>
</g>
<g>
	<g>
		<path d="M79.92,94.16c-2.666-2.666-6.987-2.666-9.653,0L53.2,111.227c-2.666,2.666-2.666,6.987,0,9.653
			c1.333,1.333,3.081,2,4.826,2s3.494-0.667,4.826-2l17.067-17.067C82.586,101.147,82.586,96.826,79.92,94.16z"/>
	</g>
</g>
<g>
	<g>
		<path d="M107.226,94.16c-2.666-2.666-6.987-2.666-9.653,0l-37.547,37.547c-2.666,2.666-2.666,6.987,0,9.653
			c1.333,1.333,3.081,2,4.826,2c1.746,0,3.494-0.667,4.826-2l37.547-37.547C109.892,101.147,109.892,96.826,107.226,94.16z"/>
	</g>
</g>
<g>
</g>
<g>
</g>
<g>
</g>
<g>
</g>
<g>
</g>
<g>
</g>
<g>
</g>
<g>
</g>
<g>
</g>
<g>
</g>
<g>
</g>
<g>
</g>
<g>
</g>
<g>
</g>
<g>
</g>
</svg>
