<?xml version="1.0" encoding="iso-8859-1"?>
<!-- Generator: Adobe Illustrator 19.0.0, SVG Export Plug-In . SVG Version: 6.00 Build 0)  -->
<svg version="1.1" id="Capa_1" xmlns="http://www.w3.org/2000/svg" xmlns:xlink="http://www.w3.org/1999/xlink" x="0px" y="0px"
	 viewBox="0 0 480 480" style="enable-background:new 0 0 480 480;" xml:space="preserve">
<g>
	<g>
		<path d="M368,0H112c-4.418,0-8,3.582-8,8v448c0,4.418,3.582,8,8,8h24v8c0,4.418,3.582,8,8,8h32c4.418,0,8-3.582,8-8v-8h112v8
			c0,4.418,3.582,8,8,8h32c4.418,0,8-3.582,8-8v-8h24c4.418,0,8-3.582,8-8V8C376,3.582,372.418,0,368,0z M360,448H120V160h240V448z
			 M360,144H120V16h240V144z"/>
	</g>
</g>
<g>
	<g>
		<path d="M144,48c-4.418,0-8,3.582-8,8v48c0,4.418,3.582,8,8,8s8-3.582,8-8V56C152,51.582,148.418,48,144,48z"/>
	</g>
</g>
<g>
	<g>
		<path d="M144,176c-4.418,0-8,3.582-8,8v48c0,4.418,3.582,8,8,8s8-3.582,8-8v-48C152,179.582,148.418,176,144,176z"/>
	</g>
</g>
<g>
</g>
<g>
</g>
<g>
</g>
<g>
</g>
<g>
</g>
<g>
</g>
<g>
</g>
<g>
</g>
<g>
</g>
<g>
</g>
<g>
</g>
<g>
</g>
<g>
</g>
<g>
</g>
<g>
</g>
</svg>
